<svg xmlns="http://www.w3.org/2000/svg" width="118" height="56" viewBox="0 0 118 56">
    <g fill="none" fill-rule="evenodd">
        <g>
            <g>
                <g>
                    <path fill="#2DC8FF" d="M27.22 13.09c1.482 0 2.687 1.178 2.714 2.641v11.205c0 8.21-6.711 14.865-14.99 14.865-8.197 0-14.857-6.523-14.99-14.62l-.002-.245V15.782c0-1.486 1.216-2.692 2.715-2.692 1.482 0 2.687 1.178 2.715 2.641v11.205c0 5.236 4.28 9.48 9.562 9.48 5.227 0 9.475-4.16 9.56-9.324l.001-.156V15.782c0-1.486 1.216-2.692 2.715-2.692zM38.96 0c.779 0 1.415.25 1.91.749.496.5.743 1.141.743 1.926v29.208c0 1.32.248 2.407.743 3.263.495.856 1.131 1.284 1.91 1.284h1.326c.707 0 1.281.25 1.723.749.443.5.664 1.141.664 1.926 0 .784-.336 1.426-1.008 1.926-.672.499-1.539.748-2.6.748h-.106c-1.52 0-2.89-.419-4.11-1.257-1.22-.838-2.167-2.015-2.839-3.53-.671-1.516-1.007-3.219-1.007-5.11V2.676c0-.785.247-1.427.742-1.926.495-.5 1.132-.749 1.91-.749zm17.38 3.21c.777 0 1.414.25 1.909.749.495.499.743 1.14.743 1.925v7.704H63.5c.743 0 1.344.214 1.804.642.46.428.69.998.69 1.711 0 .642-.23 1.177-.69 1.605-.46.428-1.06.642-1.804.642h-4.508v13.213c0 1.427.389 2.622 1.167 3.585.778.963 1.732 1.444 2.864 1.444h1.804c.636 0 1.175.25 1.617.749.442.5.664 1.141.664 1.926 0 .784-.292 1.426-.876 1.926-.583.499-1.335.748-2.254.748h-.955c-1.733 0-3.315-.454-4.748-1.364-1.432-.91-2.555-2.148-3.368-3.718-.813-1.569-1.22-3.334-1.22-5.296V18.188h-2.44c-.743 0-1.344-.214-1.804-.642-.46-.428-.69-.963-.69-1.605 0-.713.23-1.283.69-1.711.46-.428 1.061-.642 1.804-.642h2.44V5.884c0-.784.248-1.426.743-1.925.495-.5 1.131-.75 1.91-.75zm19.818 9.308c.813 0 1.467.25 1.963.749.495.499.742 1.159.742 1.979v23.805c0 .785-.247 1.436-.742 1.953-.496.517-1.15.775-1.963.775-.778 0-1.424-.258-1.936-.775-.513-.517-.77-1.168-.77-1.953V15.246c0-.82.257-1.48.77-1.98.512-.499 1.158-.748 1.936-.748zm0-11.823c.955 0 1.777.348 2.466 1.044.69.695 1.035 1.524 1.035 2.487 0 .963-.345 1.792-1.035 2.488-.69.695-1.511 1.043-2.466 1.043-.955 0-1.777-.348-2.467-1.043-.69-.696-1.034-1.525-1.034-2.488 0-.963.345-1.792 1.034-2.487.69-.696 1.512-1.044 2.467-1.044z" transform="translate(-130 -28) translate(130 28) translate(1.388 7)"/>
                    <path fill="#1753C9" fill-rule="nonzero" d="M99.367 12.935c7.836 0 14.203 6.342 14.33 14.214l.001.239v11.737c0 1.5-1.205 2.715-2.692 2.715-1.47 0-2.664-1.187-2.692-2.663V27.388c0-4.983-4.006-9.023-8.947-9.023-4.941 0-8.947 4.04-8.947 9.023 0 4.933 3.926 8.942 8.8 9.021l.18.002 3.279.08c1.486.037 2.662 1.282 2.626 2.78-.036 1.482-1.243 2.658-2.706 2.65l-.051-.002-3.222-.079-.196-.002c-7.727-.126-13.967-6.419-14.092-14.211l-.002-.24c0-7.981 6.416-14.452 14.331-14.452z" transform="translate(-130 -28) translate(130 28) translate(1.388 7)"/>
                </g>
            </g>
        </g>
    </g>
</svg>
